                                <svg width="48" height="49" viewBox="0 0 48 49" fill="none"
                                    xmlns="http://www.w3.org/2000/svg">
                                    <path
                                        d="M24 42.9083C23.0795 42.9083 22.2789 42.6 21.5981 41.9833C20.9173 41.3666 20.5128 40.598 20.3846 39.6775H27.6154C27.4872 40.598 27.0827 41.3666 26.4019 41.9833C25.7212 42.6 24.9205 42.9083 24 42.9083ZM17 36.1391V34.139H31V36.1391H17ZM17.1154 30.6006C15.2256 29.3621 13.734 27.7916 12.6404 25.889C11.5468 23.9865 11 21.8903 11 19.6006C11 15.9724 12.2596 12.8987 14.7788 10.3794C17.2981 7.8602 20.3718 6.60059 24 6.60059C27.6282 6.60059 30.7019 7.8602 33.2211 10.3794C35.7404 12.8987 37 15.9724 37 19.6006C37 21.8903 36.4532 23.9865 35.3596 25.889C34.2661 27.7916 32.7744 29.3621 30.8846 30.6006H17.1154ZM17.7 28.6006H30.3C31.8 27.5339 32.9583 26.2173 33.775 24.6506C34.5917 23.0839 35 21.4006 35 19.6006C35 16.5339 33.9333 13.9339 31.8 11.8006C29.6667 9.66725 27.0667 8.60059 24 8.60059C20.9333 8.60059 18.3333 9.66725 16.2 11.8006C14.0667 13.9339 13 16.5339 13 19.6006C13 21.4006 13.4083 23.0839 14.225 24.6506C15.0417 26.2173 16.2 27.5339 17.7 28.6006Z"
                                        fill="#333333" />
                                </svg>