<svg width="1440" height="460" viewBox="0 0 1440 460" fill="none" xmlns="http://www.w3.org/2000/svg">
<path d="M756.593 459.463H753.352V177.04H653.957V385.837H650.717V175.419C650.717 174.992 650.885 174.577 651.196 174.279C651.494 173.981 651.909 173.799 652.337 173.799H754.973C755.867 173.799 756.593 174.525 756.593 175.419V459.463Z" fill="black"/>
<path d="M756.398 145.943H650.729V149.184H756.398V145.943Z" fill="black"/>
<path d="M743.267 149.184H663.108L674.658 115.196V100.536H679.635L702.98 31.8225L726.559 100.536H731.692V115.507L743.255 149.184H743.267ZM667.632 145.943H738.731L728.464 116.039V103.777H724.252L702.993 41.8554L681.956 103.777H677.898V115.728L667.632 145.943Z" fill="black"/>
<path d="M761.752 214.28H645.972V217.521H761.752V214.28Z" fill="black"/>
<path d="M761.752 166.786H645.972V170.027H761.752V166.786Z" fill="black"/>
<path d="M705.067 249.02V261.269H698.184V249.02C698.184 247.101 699.727 245.572 701.632 245.572C703.537 245.572 705.08 247.101 705.08 249.02H705.067Z" fill="black"/>
<path d="M742.321 249.02V261.269H735.438V249.02C735.438 247.101 736.981 245.572 738.873 245.572C740.766 245.572 742.321 247.101 742.321 249.02Z" fill="black"/>
<path d="M670.264 249.02V261.269H663.381V249.007C663.381 247.088 664.923 245.559 666.829 245.559C668.734 245.559 670.277 247.088 670.277 249.007L670.264 249.02Z" fill="black"/>
<path d="M666.621 191.22V203.47H659.738V191.22C659.738 189.302 661.281 187.772 663.186 187.772C665.092 187.772 666.634 189.302 666.634 191.22H666.621Z" fill="black"/>
<path d="M686.765 191.22V203.47H679.882V191.22C679.882 189.302 681.424 187.772 683.33 187.772C685.235 187.772 686.765 189.302 686.765 191.22Z" fill="black"/>
<path d="M706.908 191.22V203.47H700.025V191.22C700.025 189.302 701.568 187.772 703.473 187.772C705.379 187.772 706.908 189.302 706.908 191.22Z" fill="black"/>
<path d="M727.051 191.22V203.47H720.168V191.22C720.168 189.302 721.711 187.772 723.616 187.772C725.521 187.772 727.064 189.302 727.064 191.22H727.051Z" fill="black"/>
<path d="M745.769 191.22V203.47H738.886V191.22C738.886 189.302 740.429 187.772 742.334 187.772C744.227 187.772 745.782 189.302 745.782 191.22H745.769Z" fill="black"/>
<path d="M672.247 156.157V168.407H665.364V156.157C665.364 154.239 666.906 152.709 668.812 152.709C670.717 152.709 672.26 154.239 672.26 156.157H672.247Z" fill="black"/>
<path d="M694.945 156.157V168.407H688.062V156.157C688.062 154.239 689.604 152.709 691.51 152.709C693.415 152.709 694.958 154.239 694.958 156.157H694.945Z" fill="black"/>
<path d="M717.641 156.157V168.407H710.758V156.157C710.758 154.239 712.3 152.709 714.206 152.709C716.111 152.709 717.654 154.239 717.654 156.157H717.641Z" fill="black"/>
<path d="M740.351 156.157V168.407H733.468V156.157C733.468 154.239 735.01 152.709 736.916 152.709C738.821 152.709 740.364 154.239 740.364 156.157H740.351Z" fill="black"/>
<path d="M659.194 147.563H655.953V168.42H659.194V147.563Z" fill="black"/>
<path d="M750.319 147.563H747.078V168.42H750.319V147.563Z" fill="black"/>
<path d="M755.776 225.078H650.729V228.319H755.776V225.078Z" fill="black"/>
<path d="M704.614 0H701.373V22.0749H704.614V0Z" fill="black"/>
<path d="M702.993 31.9651C699.947 31.9651 697.471 29.4893 697.471 26.4432C697.471 23.397 699.947 20.9212 702.993 20.9212C706.039 20.9212 708.515 23.397 708.515 26.4432C708.515 29.4893 706.039 31.9651 702.993 31.9651ZM702.993 23.2155C701.217 23.2155 699.765 24.6673 699.765 26.4432C699.765 28.219 701.217 29.6708 702.993 29.6708C704.769 29.6708 706.221 28.219 706.221 26.4432C706.221 24.6673 704.769 23.2155 702.993 23.2155Z" fill="black"/>
<path d="M259.241 404.451H256V280.479H260.044V276.37H290.817V280.479H294.874V314.842H297.622V237.211H336.496V306.404H338.039V211.545H342.096V207.488H372.856V211.545H376.913V296.125H379.142V263.524H383.199V256.175H413.959V263.524H418.016V288.386H421.555V276.461H425.612V272.352H461.609V278.898H467.52V319.496H464.279V282.138H458.368V275.592H428.853V279.701H424.796V291.627H414.776V266.765H410.719V259.415H386.44V266.765H382.383V299.365H373.672V214.786H369.615V210.729H345.336V214.786H341.279V309.644H333.256V240.451H300.863V318.083H291.633V283.72H287.576V279.611H263.285V283.72H259.241V404.451Z" fill="black"/>
<path d="M1184 391.748H1180.76V283.72H1176.7V279.611H1152.42V283.72H1148.37V318.083H1123V202.394H1113.86L1081.48 174.421V337.63H1066.92V272.793H1059.08V259.726H1033.6V274.089H1026.74V347.248H1008.92V314.596H973.622V359.342H970.381V311.355H1012.16V344.008H1023.5V270.848H1030.36V256.486H1062.32V269.552H1070.17V334.39H1078.24V167.331L1115.07 199.153H1126.24V314.842H1145.13V280.479H1149.18V276.37H1179.94V280.479H1184V391.748Z" fill="black"/>
<path d="M613.32 359.912H610.08V324.966H578.672V350.955H566.773V268.671H560.499V254.71H533.446V268.671H528.624V331.227H504.216V308.4H465.9V305.159H507.457V327.986H525.384V265.43H530.206V251.469H563.739V265.43H570.013V347.715H575.431V321.725H613.32V359.912Z" fill="black"/>
<path d="M638.817 343.593H611.7V340.352H635.576V316.916H652.337V320.157H638.817V343.593Z" fill="black"/>
<path d="M833.187 361.623H811.008V337.449H804.89V324.383H780.287V337.449H770.488V361.623H754.972V358.383H767.247V334.208H777.047V321.142H808.13V334.208H814.249V358.383H829.946V309.385H882.184V347.922H887.434V276.733H900.487V258.443H939.854V276.085H948.798V340.352H972V343.593H945.557V279.326H936.613V261.684H903.728V279.974H890.675V351.163H878.944V312.626H833.187V361.623Z" fill="black"/>
<path d="M0 402H259V405H0V402Z" fill="black"/>
<path d="M1181 389H1440V392H1181V389Z" fill="black"/>
</svg>
