                                <svg width="48" height="49" viewBox="0 0 48 49" fill="none"
                                    xmlns="http://www.w3.org/2000/svg">
                                    <path
                                        d="M20 32.6775C23.3333 32.6775 26.1667 31.5071 28.5 29.1663C30.8333 26.8255 32 23.9831 32 20.639C32 17.295 30.8333 14.4526 28.5 12.1118C26.1667 9.77099 23.3333 8.60059 20 8.60059C16.6667 8.60059 13.8333 9.77099 11.5 12.1118C9.16667 14.4526 8 17.295 8 20.639C8 23.9831 9.16667 26.8255 11.5 29.1663C13.8333 31.5071 16.6667 32.6775 20 32.6775ZM19 25.7929V13.8698H21V25.7929H19ZM12.3077 25.7929V17.6775H14.3077V25.7929H12.3077ZM25.6923 25.7929V19.6006H27.6923V25.7929H25.6923ZM40.6231 42.6006L29.1961 31.1737C27.9577 32.2404 26.5544 33.0782 24.9864 33.6871C23.4183 34.2961 21.7562 34.6006 20 34.6006C16.0917 34.6006 12.7812 33.2449 10.0687 30.5336C7.35625 27.8223 6 24.5133 6 20.6067C6 16.7001 7.35565 13.389 10.067 10.6736C12.7783 7.95827 16.0873 6.60059 19.9939 6.60059C23.9005 6.60059 27.2115 7.95684 29.927 10.6693C32.6423 13.3818 34 16.6923 34 20.6006C34 22.3568 33.6955 24.0189 33.0866 25.587C32.4776 27.155 31.6398 28.5455 30.5731 29.7583L42 41.1852L40.6231 42.6006Z"
                                        fill="#333333" />
                                </svg>