                                <svg width="48" height="48" viewBox="0 0 48 48" fill="none"
                                    xmlns="http://www.w3.org/2000/svg">
                                    <path
                                        d="M23.4036 39.884C23.6652 39.884 23.9331 39.825 24.2075 39.7071C24.4818 39.5891 24.7036 39.4455 24.8728 39.2763L40.4652 23.684C40.9677 23.1814 41.3556 22.6673 41.6286 22.1417C41.9017 21.6161 42.0382 21.0391 42.0382 20.4109C42.0382 19.775 41.9017 19.1577 41.6286 18.559C41.3556 17.9603 40.9677 17.4135 40.4652 16.9186L32.9652 9.41864C32.4703 8.91607 31.9619 8.54747 31.4402 8.31284C30.9184 8.07824 30.3395 7.96094 29.7036 7.96094C29.0754 7.96094 28.4921 8.07824 27.9536 8.31284C27.4152 8.54747 26.9075 8.91607 26.4305 9.41864L24.6882 11.1609L28.3882 14.8724C28.7857 15.2622 29.0819 15.7058 29.2767 16.2032C29.4716 16.7007 29.569 17.2058 29.569 17.7186C29.569 18.7596 29.2286 19.6205 28.5479 20.3013C27.8671 20.9821 27.0062 21.3225 25.9652 21.3225C25.4523 21.3225 24.9517 21.2443 24.4632 21.0878C23.9748 20.9314 23.5357 20.6584 23.1459 20.2686L19.319 16.4532L10.6844 25.0878C10.4818 25.2904 10.3299 25.5205 10.2286 25.7782C10.1273 26.0359 10.0767 26.2956 10.0767 26.5571C10.0767 27.0289 10.228 27.418 10.5305 27.7244C10.8331 28.0308 11.2203 28.184 11.6921 28.184C11.9536 28.184 12.2216 28.125 12.4959 28.0071C12.7703 27.8891 12.9921 27.7455 13.1613 27.5763L19.4998 21.2378L20.9152 22.6532L14.5882 28.9917C14.3857 29.1943 14.2337 29.4244 14.1325 29.6821C14.0312 29.9398 13.9805 30.1994 13.9805 30.4609C13.9805 30.9071 14.1382 31.2878 14.4536 31.6032C14.769 31.9186 15.1498 32.0763 15.5959 32.0763C15.8575 32.0763 16.1254 32.0173 16.3998 31.8994C16.6741 31.7814 16.8959 31.6378 17.0652 31.4686L23.8652 24.6801L25.2805 26.0955L18.4921 32.8955C18.3152 33.0648 18.1697 33.2866 18.0555 33.5609C17.9414 33.8353 17.8844 34.1033 17.8844 34.3648C17.8844 34.8109 18.0421 35.1917 18.3575 35.5071C18.6728 35.8225 19.0536 35.9801 19.4998 35.9801C19.7613 35.9801 20.0209 35.9295 20.2786 35.8282C20.5363 35.7269 20.7665 35.575 20.969 35.3725L27.769 28.584L29.1844 29.9994L22.3844 36.7994C22.1818 37.002 22.0299 37.2449 21.9286 37.5282C21.8274 37.8116 21.7767 38.0712 21.7767 38.3071C21.7767 38.7789 21.9427 39.1597 22.2748 39.4494C22.6068 39.7391 22.9831 39.884 23.4036 39.884ZM23.3921 41.884C22.3639 41.884 21.4837 41.5078 20.7517 40.7552C20.0196 40.0026 19.6985 39.0738 19.7882 37.9686C18.6549 37.9814 17.7113 37.643 16.9575 36.9532C16.2036 36.2635 15.8459 35.3007 15.8844 34.0648C14.6485 34.0776 13.6748 33.7244 12.9632 33.0052C12.2517 32.286 11.928 31.3379 11.9921 30.1609C10.8792 30.1737 9.94848 29.8609 9.19978 29.2225C8.45105 28.584 8.07668 27.6956 8.07668 26.5571C8.07668 26.0443 8.17605 25.5308 8.37478 25.0167C8.57348 24.5026 8.86771 24.0507 9.25748 23.6609L19.319 13.6109L24.4844 18.7763C24.6536 18.9532 24.8626 19.0987 25.1113 19.2128C25.36 19.3269 25.6408 19.384 25.9536 19.384C26.3818 19.384 26.76 19.2346 27.0882 18.9359C27.4164 18.6372 27.5805 18.2481 27.5805 17.7686C27.5805 17.4558 27.5235 17.175 27.4094 16.9263C27.2953 16.6776 27.1498 16.4686 26.9729 16.2994L20.0921 9.41864C19.5972 8.91607 19.0825 8.54747 18.5479 8.31284C18.0132 8.07824 17.428 7.96094 16.7921 7.96094C16.1639 7.96094 15.5934 8.07824 15.0805 8.31284C14.5677 8.54747 14.06 8.91607 13.5575 9.41864L7.46903 15.5186C7.0408 15.9468 6.69463 16.4571 6.43053 17.0494C6.16643 17.6417 6.0267 18.2532 6.01133 18.884C5.99593 19.3353 6.03438 19.7693 6.12668 20.1859C6.21901 20.6026 6.36518 20.9943 6.56518 21.3609L5.04978 22.8763C4.71388 22.3404 4.45105 21.7231 4.26128 21.0244C4.07155 20.3257 3.98438 19.6122 3.99978 18.884C4.01515 17.9763 4.1972 17.1064 4.54593 16.2744C4.89463 15.4423 5.39335 14.7019 6.04208 14.0532L12.0921 8.00324C12.7895 7.31347 13.5273 6.80064 14.3055 6.46474C15.0838 6.12887 15.9254 5.96094 16.8305 5.96094C17.7357 5.96094 18.5709 6.12887 19.3363 6.46474C20.1017 6.80064 20.8293 7.31347 21.519 8.00324L23.2613 9.74554L25.0036 8.00324C25.7011 7.31347 26.4325 6.80064 27.1978 6.46474C27.9632 6.12887 28.7985 5.96094 29.7036 5.96094C30.6088 5.96094 31.4504 6.12887 32.2286 6.46474C33.0068 6.80064 33.7408 7.31347 34.4305 8.00324L41.8806 15.4532C42.5703 16.143 43.1024 16.9173 43.4767 17.7763C43.8511 18.6353 44.0382 19.5174 44.0382 20.4225C44.0382 21.3276 43.8511 22.1628 43.4767 22.9282C43.1024 23.6936 42.5703 24.4212 41.8806 25.1109L26.2882 40.6917C25.8729 41.1071 25.4209 41.4097 24.9325 41.5994C24.444 41.7892 23.9305 41.884 23.3921 41.884Z"
                                        fill="#333333" stroke="#333333" />
                                </svg>